<svg xmlns="http://www.w3.org/2000/svg" xmlns:xlink="http://www.w3.org/1999/xlink" width="2320" height="2710" viewBox="0 0 2320 2710">
  <defs>
    <linearGradient id="linear-gradient" x1="0.5" x2="0.5" y2="1" gradientUnits="objectBoundingBox">
      <stop offset="0" stop-color="#965689"/>
      <stop offset="1" stop-color="#702f42"/>
    </linearGradient>
    <linearGradient id="linear-gradient-2" x1="0.5" x2="0.5" y2="1" gradientUnits="objectBoundingBox">
      <stop offset="0" stop-color="#4f7f63"/>
      <stop offset="1" stop-color="#436450"/>
    </linearGradient>
    <linearGradient id="linear-gradient-3" x1="0.5" x2="0.5" y2="1" gradientUnits="objectBoundingBox">
      <stop offset="0" stop-color="#36c9c4"/>
      <stop offset="1" stop-color="#569694"/>
    </linearGradient>
  </defs>
  <g id="Group_91" data-name="Group 91" transform="translate(423 -1584)">
    <g id="Ellipse_27" data-name="Ellipse 27" transform="translate(-423 2262)" fill="none" stroke="#f2f2f2" stroke-width="2" stroke-dasharray="12">
      <circle cx="379" cy="379" r="379" stroke="none"/>
      <circle cx="379" cy="379" r="378" fill="none"/>
    </g>
    <g id="Ellipse_28" data-name="Ellipse 28" transform="translate(540 3385)" fill="none" stroke="#f2f2f2" stroke-width="2" stroke-dasharray="12">
      <circle cx="143" cy="143" r="143" stroke="none"/>
      <circle cx="143" cy="143" r="142" fill="none"/>
    </g>
    <g id="Ellipse_29" data-name="Ellipse 29" transform="translate(249 3528)" fill="none" stroke="#f2f2f2" stroke-width="2" stroke-dasharray="12">
      <circle cx="262" cy="262" r="262" stroke="none"/>
      <circle cx="262" cy="262" r="261" fill="none"/>
    </g>
    <path id="Path_21" data-name="Path 21" d="M-1519.665,288.4a1.542,1.542,0,0,0,1.2-.572l6.784-8.373,6.784,8.373a1.54,1.54,0,0,0,1.2.572,1.537,1.537,0,0,0,.97-.344,1.543,1.543,0,0,0,.228-2.17l-7.983-9.852a1.542,1.542,0,0,0-1.2-.572,1.543,1.543,0,0,0-1.2.572l-6.784,8.373-6.784-8.373a1.542,1.542,0,0,0-1.2-.572,1.542,1.542,0,0,0-1.2.572l-6.784,8.373-6.784-8.373a1.542,1.542,0,0,0-1.2-.572,1.543,1.543,0,0,0-1.2.572l-7.983,9.852a1.543,1.543,0,0,0,.228,2.17,1.543,1.543,0,0,0,2.17-.228l6.784-8.373,6.784,8.373a1.542,1.542,0,0,0,1.2.572,1.542,1.542,0,0,0,1.2-.572l6.784-8.373,6.784,8.373A1.542,1.542,0,0,0-1519.665,288.4Z" transform="translate(2447.141 2352.605)" fill="#f2f2f2"/>
    <g id="Rectangle_28" data-name="Rectangle 28" transform="translate(409 3119.645) rotate(45)" fill="#121212" stroke="#f2f2f2" stroke-width="2">
      <rect width="50" height="50" stroke="none"/>
      <rect x="1" y="1" width="48" height="48" fill="none"/>
    </g>
    <g id="Rectangle_84" data-name="Rectangle 84" transform="translate(1507 2414) rotate(45)" fill="#121212" stroke="#f2f2f2" stroke-width="2">
      <rect width="50" height="50" stroke="none"/>
      <rect x="1" y="1" width="48" height="48" fill="none"/>
    </g>
    <path id="Path_14" data-name="Path 14" d="M1485.182,666a13.247,13.247,0,1,1-13.247,13.247A13.263,13.263,0,0,1,1485.182,666m0-10a23.247,23.247,0,1,0,23.247,23.247A23.247,23.247,0,0,0,1485.182,656Z" transform="translate(-1257.182 2894.754)" fill="url(#linear-gradient)"/>
    <g id="Ellipse_7" data-name="Ellipse 7" transform="translate(1687 2842)" fill="none" stroke="#f2f2f2" stroke-width="2" stroke-dasharray="12">
      <circle cx="45.5" cy="45.5" r="45.5" stroke="none"/>
      <circle cx="45.5" cy="45.5" r="44.5" fill="none"/>
    </g>
    <path id="Path_13" data-name="Path 13" d="M1389.561,592a7,7,0,1,1-7,7,7.008,7.008,0,0,1,7-7m0-10a17,17,0,1,0,17,17,17,17,0,0,0-17-17Z" transform="translate(342.439 2288)" fill="url(#linear-gradient-2)"/>
    <g id="Group_88" data-name="Group 88" transform="translate(51 3292)">
      <g id="Group_4" data-name="Group 4" transform="translate(1677 833)">
        <path id="Union_3" data-name="Union 3" d="M7.5,1341v-7.5H0v-5H7.5V1321h5v7.5H20v5H12.5v7.5Z" transform="translate(74 -1247)" fill="#f2f2f2" opacity="0.3"/>
        <path id="Union_5" data-name="Union 5" d="M7.5,1341v-7.5H0v-5H7.5V1321h5v7.5H20v5H12.5v7.5Z" transform="translate(99 -1247)" fill="#f2f2f2" opacity="0.3"/>
        <path id="Union_4" data-name="Union 4" d="M7.5,1341v-7.5H0v-5H7.5V1321h5v7.5H20v5H12.5v7.5Z" transform="translate(74 -1222)" fill="#f2f2f2" opacity="0.3"/>
        <path id="Union_6" data-name="Union 6" d="M7.5,1341v-7.5H0v-5H7.5V1321h5v7.5H20v5H12.5v7.5Z" transform="translate(99 -1222)" fill="#f2f2f2" opacity="0.3"/>
      </g>
      <g id="Group_4-2" data-name="Group 4" transform="translate(1727 833)">
        <path id="Union_3-2" data-name="Union 3" d="M7.5,1341v-7.5H0v-5H7.5V1321h5v7.5H20v5H12.5v7.5Z" transform="translate(74 -1247)" fill="#f2f2f2" opacity="0.3"/>
        <path id="Union_5-2" data-name="Union 5" d="M7.5,1341v-7.5H0v-5H7.5V1321h5v7.5H20v5H12.5v7.5Z" transform="translate(99 -1247)" fill="#f2f2f2" opacity="0.3"/>
        <path id="Union_4-2" data-name="Union 4" d="M7.5,1341v-7.5H0v-5H7.5V1321h5v7.5H20v5H12.5v7.5Z" transform="translate(74 -1222)" fill="#f2f2f2" opacity="0.3"/>
        <path id="Union_6-2" data-name="Union 6" d="M7.5,1341v-7.5H0v-5H7.5V1321h5v7.5H20v5H12.5v7.5Z" transform="translate(99 -1222)" fill="#f2f2f2" opacity="0.3"/>
      </g>
      <g id="Group_4-3" data-name="Group 4" transform="translate(1677 883)">
        <path id="Union_3-3" data-name="Union 3" d="M7.5,1341v-7.5H0v-5H7.5V1321h5v7.5H20v5H12.5v7.5Z" transform="translate(74 -1247)" fill="#f2f2f2" opacity="0.3"/>
        <path id="Union_5-3" data-name="Union 5" d="M7.5,1341v-7.5H0v-5H7.5V1321h5v7.5H20v5H12.5v7.5Z" transform="translate(99 -1247)" fill="#f2f2f2" opacity="0.3"/>
        <path id="Union_6-3" data-name="Union 6" d="M7.5,1341v-7.5H0v-5H7.5V1321h5v7.5H20v5H12.5v7.5Z" transform="translate(99 -1222)" fill="#f2f2f2" opacity="0.3"/>
      </g>
      <g id="Group_4-4" data-name="Group 4" transform="translate(1727 883)">
        <path id="Union_3-4" data-name="Union 3" d="M7.5,1341v-7.5H0v-5H7.5V1321h5v7.5H20v5H12.5v7.5Z" transform="translate(74 -1247)" fill="#f2f2f2" opacity="0.3"/>
        <path id="Union_5-4" data-name="Union 5" d="M7.5,1341v-7.5H0v-5H7.5V1321h5v7.5H20v5H12.5v7.5Z" transform="translate(99 -1247)" fill="#f2f2f2" opacity="0.3"/>
        <path id="Union_4-3" data-name="Union 4" d="M7.5,1341v-7.5H0v-5H7.5V1321h5v7.5H20v5H12.5v7.5Z" transform="translate(74 -1222)" fill="#f2f2f2" opacity="0.3"/>
        <path id="Union_6-4" data-name="Union 6" d="M7.5,1341v-7.5H0v-5H7.5V1321h5v7.5H20v5H12.5v7.5Z" transform="translate(99 -1222)" fill="#f2f2f2" opacity="0.3"/>
      </g>
    </g>
    <path id="Path_10" data-name="Path 10" d="M1389.561,592a7,7,0,1,1-7,7,7.008,7.008,0,0,1,7-7m0-10a17,17,0,1,0,17,17,17,17,0,0,0-17-17Z" transform="translate(117.439 1002)" fill="url(#linear-gradient-3)"/>
    <g id="Group_89" data-name="Group 89" transform="translate(1731.602 92.512) rotate(45)">
      <rect id="Rectangle_80" data-name="Rectangle 80" width="6.642" height="6.642" transform="translate(590 1730)" fill="#715d9c"/>
      <rect id="Rectangle_83" data-name="Rectangle 83" width="6.642" height="6.642" transform="translate(590 1738.856)" fill="#715d9c"/>
      <rect id="Rectangle_81" data-name="Rectangle 81" width="6.642" height="6.642" transform="translate(598.856 1730)" fill="#715d9c"/>
      <rect id="Rectangle_82" data-name="Rectangle 82" width="6.642" height="6.642" transform="translate(598.856 1738.856)" fill="#715d9c"/>
    </g>
  </g>
</svg>
