<svg xmlns="http://www.w3.org/2000/svg" width="95" height="95" viewBox="0 0 95 95">
  <g id="Group_80" data-name="Group 80" transform="translate(-1751 -907)">
    <g id="Group_4" data-name="Group 4" transform="translate(1677 833)">
      <path id="Union_3" data-name="Union 3" d="M7.5,1341v-7.5H0v-5H7.5V1321h5v7.5H20v5H12.5v7.5Z" transform="translate(74 -1247)" fill="#f2f2f2" opacity="0.3"/>
      <path id="Union_5" data-name="Union 5" d="M7.5,1341v-7.5H0v-5H7.5V1321h5v7.5H20v5H12.5v7.5Z" transform="translate(99 -1247)" fill="#f2f2f2" opacity="0.3"/>
      <path id="Union_4" data-name="Union 4" d="M7.5,1341v-7.5H0v-5H7.5V1321h5v7.5H20v5H12.5v7.5Z" transform="translate(74 -1222)" fill="#f2f2f2" opacity="0.3"/>
      <path id="Union_6" data-name="Union 6" d="M7.5,1341v-7.5H0v-5H7.5V1321h5v7.5H20v5H12.5v7.5Z" transform="translate(99 -1222)" fill="#f2f2f2" opacity="0.3"/>
    </g>
    <g id="Group_4-2" data-name="Group 4" transform="translate(1727 833)">
      <path id="Union_3-2" data-name="Union 3" d="M7.5,1341v-7.5H0v-5H7.5V1321h5v7.5H20v5H12.5v7.5Z" transform="translate(74 -1247)" fill="#f2f2f2" opacity="0.3"/>
      <path id="Union_5-2" data-name="Union 5" d="M7.5,1341v-7.5H0v-5H7.5V1321h5v7.5H20v5H12.5v7.5Z" transform="translate(99 -1247)" fill="#f2f2f2" opacity="0.3"/>
      <path id="Union_4-2" data-name="Union 4" d="M7.5,1341v-7.5H0v-5H7.5V1321h5v7.5H20v5H12.5v7.5Z" transform="translate(74 -1222)" fill="#f2f2f2" opacity="0.3"/>
      <path id="Union_6-2" data-name="Union 6" d="M7.5,1341v-7.5H0v-5H7.5V1321h5v7.5H20v5H12.5v7.5Z" transform="translate(99 -1222)" fill="#f2f2f2" opacity="0.3"/>
    </g>
    <g id="Group_4-3" data-name="Group 4" transform="translate(1677 883)">
      <path id="Union_3-3" data-name="Union 3" d="M7.5,1341v-7.5H0v-5H7.5V1321h5v7.5H20v5H12.5v7.5Z" transform="translate(74 -1247)" fill="#f2f2f2" opacity="0.3"/>
      <path id="Union_5-3" data-name="Union 5" d="M7.5,1341v-7.5H0v-5H7.5V1321h5v7.5H20v5H12.5v7.5Z" transform="translate(99 -1247)" fill="#f2f2f2" opacity="0.3"/>
      <path id="Union_6-3" data-name="Union 6" d="M7.5,1341v-7.5H0v-5H7.5V1321h5v7.5H20v5H12.5v7.5Z" transform="translate(99 -1222)" fill="#f2f2f2" opacity="0.3"/>
    </g>
    <g id="Group_4-4" data-name="Group 4" transform="translate(1727 883)">
      <path id="Union_3-4" data-name="Union 3" d="M7.5,1341v-7.5H0v-5H7.5V1321h5v7.5H20v5H12.5v7.5Z" transform="translate(74 -1247)" fill="#f2f2f2" opacity="0.3"/>
      <path id="Union_5-4" data-name="Union 5" d="M7.5,1341v-7.5H0v-5H7.5V1321h5v7.5H20v5H12.5v7.5Z" transform="translate(99 -1247)" fill="#f2f2f2" opacity="0.3"/>
      <path id="Union_4-3" data-name="Union 4" d="M7.5,1341v-7.5H0v-5H7.5V1321h5v7.5H20v5H12.5v7.5Z" transform="translate(74 -1222)" fill="#f2f2f2" opacity="0.3"/>
      <path id="Union_6-4" data-name="Union 6" d="M7.5,1341v-7.5H0v-5H7.5V1321h5v7.5H20v5H12.5v7.5Z" transform="translate(99 -1222)" fill="#f2f2f2" opacity="0.3"/>
    </g>
  </g>
</svg>
