<svg xmlns="http://www.w3.org/2000/svg" width="75.579" height="103" viewBox="0 0 75.579 103">
  <g id="Group_56" data-name="Group 56" transform="translate(-2087.082)">
    <path id="Path_85" data-name="Path 85" d="M2535.218,174.251c.911,2.139,1.784,4.335.741,6.674.958,1.194,3.6,4.778,3.1,7.154,5.8-10.207,5.06-12.17,2.225-18.713C2541.133,168.848,2534.943,173.6,2535.218,174.251Z" transform="translate(-385.047 -145.491)" fill="#f2f2f2"/>
    <path id="Path_86" data-name="Path 86" d="M2447.635,210.225a4.108,4.108,0,1,0-4.107,4.108A4.111,4.111,0,0,0,2447.635,210.225Zm-5.982,0a1.875,1.875,0,1,1,1.875,1.875A1.877,1.877,0,0,1,2441.652,210.225Z" transform="translate(-302.741 -177.103)" fill="#f2f2f2"/>
    <path id="Path_87" data-name="Path 87" d="M2125.227,180.924c-1.042-2.339-.169-4.534.742-6.674.275-.646-5.915-5.4-6.063-4.885-2.835,6.543-3.577,8.506,2.224,18.713C2121.626,185.7,2124.27,182.119,2125.227,180.924Z" transform="translate(-26.355 -145.491)" fill="#f2f2f2"/>
    <path id="Path_88" data-name="Path 88" d="M2221.813,210.225a4.107,4.107,0,1,0-4.107,4.108A4.112,4.112,0,0,0,2221.813,210.225Zm-4.107,1.875a1.875,1.875,0,1,1,1.875-1.875A1.877,1.877,0,0,1,2217.705,212.1Z" transform="translate(-108.707 -177.103)" fill="#f2f2f2"/>
    <path id="Path_89" data-name="Path 89" d="M2150.709,0c-4.652,0-12.648,3.411-20.625,9.939h-10.426C2111.683,3.411,2103.687,0,2099.034,0c-6.746,0-11.952,5.351-11.952,10.759,0,4.915,3.78,10.091,7.386,10.367-1.829-2.853-2.856-10.6,3.1-10.621,6.208-.007,9.523,9.211,12.737,9.182,1.7,0,3.5-2.734,4.995-3.882,2.7,0,3.94-1.818,5.212-3.533a5.8,5.8,0,0,1-5.278,5.06c-1.09,2.922-3.606,4.362-5.017,4.362-2.332-.079-4.841-3.49-5.234-4.406-3.055,2.966-5.06,4.58-5.875,5.854l-.014,1.038c.96.262,3.036,1.97,2.683,2.639-1.7,3.228-2.442,6.8-1.047,8.833-.622.54-2.909,2.973-3.184,4.537a6.825,6.825,0,0,0-.044,3.707c.194,1.339,4.515,3.337,4.537,7.241,0,2.072-2.115,8.462-3.62,9.378,2.05.851,7.539,7.823,3.293,13.827V76.3c.414,4.849,3.64,8.462,4.231,8.593,5.859,1.3,9.793,5.5,6.892,8.2,0,3.86,6.753,4.462,7.066,5.016.376.9.49,2.386-1,4.885a13.357,13.357,0,0,0,5.977-4.465c.02-.024,3.808,3.82,5.976,4.465-1.493-2.5-1.379-3.989-1-4.885.313-.554,7.066-1.156,7.066-5.016-2.9-2.7,1.033-6.9,6.892-8.2.591-.131,3.818-3.744,4.231-8.593V74.342c-4.246-6,1.243-12.977,3.293-13.827-1.5-.916-3.621-7.306-3.621-9.378.022-3.9,4.342-5.9,4.538-7.241a6.829,6.829,0,0,0-.044-3.708c-.275-1.563-2.562-4-3.184-4.536,1.4-2.028.654-5.605-1.047-8.833-.353-.669,1.723-2.377,2.683-2.639l-.014-1.038c-.815-1.274-2.82-2.888-5.875-5.854-.393.916-2.9,4.326-5.234,4.406-1.41,0-3.926-1.439-5.016-4.362a5.8,5.8,0,0,1-5.278-5.06c1.272,1.715,2.515,3.533,5.212,3.533,1.491,1.149,3.293,3.882,4.995,3.882,3.213.029,6.528-9.189,12.737-9.182,5.953.019,4.926,7.768,3.1,10.621,3.605-.276,7.386-5.452,7.386-10.367C2162.661,5.351,2157.456,0,2150.709,0Zm-25.9,90.307c-1.762,0-8.916-3.751-10.376-7.2,3.118,2.117,6.717,4.348,10.376,4.348s7.258-2.231,10.376-4.348C2133.727,86.555,2126.573,90.307,2124.811,90.307Zm15.669-24.79c0,5.758-7.48,19.861-15.71,19.861s-15.71-14.1-15.71-19.861V60.98c0-1.89,4.094-11.952,8.993-11.952a12.248,12.248,0,0,0,13.435,0c4.9,0,8.994,10.062,8.994,11.952ZM2138.543,41.9c0-2.587-1.109-3.591-1.109-3.591-1.254-1.254-6.805-4.755-6.805-6.732,3.49,0,8.986-4.827,12.388-4.827,2.617,0,5.605,2.923,5.605,5.387v1.9c0,2.966-5.306,6.89-9.29,4.622a8.429,8.429,0,0,1,1.454,4.189c0,1.265-.587,5.6-4.033,5.6-2.9,0-3.092-1.626-5.142-1.626-2.034,0-6.172,2.721-6.8,2.721s-4.766-2.721-6.8-2.721c-2.05,0-2.247,1.626-5.142,1.626-3.446,0-4.033-4.33-4.033-5.6a8.429,8.429,0,0,1,1.454-4.189c-3.984,2.268-9.015-1.808-9.015-4.775v-1.9a5.852,5.852,0,0,1,5.331-5.234c3.4,0,8.9,4.827,12.388,4.827,0,1.977-5.551,5.478-6.8,6.732,0,0-1.109,1-1.109,3.591,0,3.825,1.938,4.023,4.007,4.023-.8-.729-1.955-2.857-1.331-3.481,1.871-1.871,3.841,3.479,11.056,3.479s9.185-5.35,11.056-3.479c.624.624-.53,2.753-1.331,3.481C2136.606,45.926,2138.543,45.728,2138.543,41.9Z" transform="translate(0 0)" fill="#f2f2f2"/>
  </g>
</svg>
