<svg xmlns="http://www.w3.org/2000/svg" width="40.839" height="55.655" viewBox="0 0 40.839 55.655">
  <g id="Group_51" data-name="Group 51" transform="translate(-2087.082)">
    <path id="Path_85" data-name="Path 85" d="M2535.214,171.987c.492,1.156.964,2.342.4,3.606.518.645,1.946,2.582,1.674,3.865,3.135-5.515,2.734-6.576,1.2-10.111C2538.41,169.068,2535.065,171.638,2535.214,171.987Z" transform="translate(-414.042 -156.447)" fill="#715d9c"/>
    <path id="Path_86" data-name="Path 86" d="M2443.858,208.337a2.22,2.22,0,1,0-2.219,2.22A2.222,2.222,0,0,0,2443.858,208.337Zm-3.233,0a1.013,1.013,0,1,1,1.013,1.013A1.014,1.014,0,0,1,2440.625,208.337Z" transform="translate(-325.538 -190.44)" fill="#715d9c"/>
    <path id="Path_87" data-name="Path 87" d="M2121.792,175.593c-.563-1.264-.091-2.45.4-3.606.149-.349-3.2-2.919-3.276-2.64-1.532,3.535-1.933,4.6,1.2,10.111C2119.847,178.175,2121.275,176.238,2121.792,175.593Z" transform="translate(-28.34 -156.447)" fill="#715d9c"/>
    <path id="Path_88" data-name="Path 88" d="M2218.037,208.337a2.219,2.219,0,1,0-2.219,2.22A2.222,2.222,0,0,0,2218.037,208.337Zm-2.219,1.013a1.013,1.013,0,1,1,1.013-1.013A1.014,1.014,0,0,1,2215.817,209.35Z" transform="translate(-116.893 -190.44)" fill="#715d9c"/>
    <path id="Path_89" data-name="Path 89" d="M2121.462,0c-2.514,0-6.834,1.843-11.144,5.37h-5.634c-4.31-3.527-8.63-5.37-11.145-5.37-3.645,0-6.458,2.891-6.458,5.814,0,2.656,2.043,5.452,3.991,5.6-.989-1.542-1.543-5.729,1.673-5.739,3.355,0,5.146,4.977,6.882,4.961.919,0,1.893-1.477,2.7-2.1,1.457,0,2.129-.982,2.817-1.909a3.133,3.133,0,0,1-2.852,2.734,3.439,3.439,0,0,1-2.71,2.357c-1.26-.043-2.616-1.886-2.828-2.38a30.43,30.43,0,0,0-3.175,3.163l-.007.561c.519.142,1.64,1.064,1.449,1.426-.919,1.744-1.32,3.677-.566,4.773a6.383,6.383,0,0,0-1.72,2.451,3.687,3.687,0,0,0-.024,2c.105.723,2.44,1.8,2.451,3.913,0,1.12-1.143,4.572-1.956,5.067,1.108.46,4.073,4.227,1.779,7.472v1.061a6.868,6.868,0,0,0,2.286,4.643c3.166.7,5.292,2.97,3.724,4.431,0,2.086,3.649,2.411,3.818,2.711.2.485.265,1.289-.542,2.64a7.219,7.219,0,0,0,3.23-2.413c.011-.013,2.057,2.064,3.229,2.413-.807-1.351-.745-2.155-.542-2.64.169-.3,3.818-.625,3.818-2.711-1.567-1.461.558-3.728,3.724-4.431a6.867,6.867,0,0,0,2.286-4.643V40.17c-2.294-3.245.672-7.012,1.779-7.472-.813-.495-1.956-3.948-1.956-5.067.012-2.109,2.346-3.189,2.452-3.913a3.69,3.69,0,0,0-.024-2,6.381,6.381,0,0,0-1.72-2.451c.754-1.1.354-3.029-.566-4.773-.191-.362.931-1.284,1.449-1.426l-.007-.561a30.4,30.4,0,0,0-3.175-3.163c-.212.495-1.568,2.338-2.828,2.38a3.439,3.439,0,0,1-2.71-2.357,3.132,3.132,0,0,1-2.852-2.734c.688.927,1.359,1.909,2.816,1.909.805.621,1.78,2.1,2.7,2.1,1.736.016,3.528-4.965,6.882-4.961,3.217.01,2.662,4.2,1.674,5.739,1.948-.149,3.991-2.946,3.991-5.6C2127.921,2.891,2125.108,0,2121.462,0Zm-13.994,48.8c-.952,0-4.817-2.027-5.607-3.89,1.685,1.144,3.629,2.349,5.607,2.349s3.922-1.205,5.607-2.349C2112.286,46.77,2108.421,48.8,2107.469,48.8Zm8.467-13.4c0,3.111-4.042,10.732-8.489,10.732s-8.489-7.621-8.489-10.732V32.95c0-1.021,2.212-6.458,4.859-6.458a6.618,6.618,0,0,0,7.26,0c2.647,0,4.86,5.437,4.86,6.458Zm-1.047-12.759a2.645,2.645,0,0,0-.6-1.94c-.677-.678-3.677-2.569-3.677-3.638,1.886,0,4.856-2.608,6.694-2.608a3.4,3.4,0,0,1,3.029,2.911v1.025c0,1.6-2.867,3.723-5.02,2.5a4.555,4.555,0,0,1,.785,2.264c0,.683-.317,3.023-2.179,3.023-1.565,0-1.671-.879-2.779-.879s-3.335,1.47-3.675,1.47-2.575-1.47-3.674-1.47-1.214.879-2.779.879c-1.862,0-2.179-2.34-2.179-3.023a4.555,4.555,0,0,1,.785-2.264c-2.153,1.226-4.871-.977-4.871-2.58V17.284a3.162,3.162,0,0,1,2.88-2.828c1.838,0,4.808,2.608,6.694,2.608,0,1.068-3,2.96-3.677,3.638a2.645,2.645,0,0,0-.6,1.94c0,2.067,1.047,2.174,2.165,2.174-.433-.394-1.056-1.544-.719-1.881,1.011-1.011,2.075,1.88,5.974,1.88s4.963-2.891,5.974-1.88c.337.337-.286,1.487-.719,1.881C2113.842,24.816,2114.889,24.709,2114.889,22.642Z" fill="#715d9c"/>
  </g>
</svg>
